<?xml version="1.0" encoding="UTF-8" standalone="no"?><svg xmlns="http://www.w3.org/2000/svg" xmlns:xlink="http://www.w3.org/1999/xlink" contentScriptType="application/ecmascript" contentStyleType="text/css" height="1270px" preserveAspectRatio="none" style="width:655px;height:1270px;background:#FFFFFF;" version="1.1" viewBox="0 0 655 1270" width="655px" zoomAndPan="magnify"><defs><filter height="300%" id="feo4anu86jqps" width="300%" x="-1" y="-1"><feGaussianBlur result="blurOut" stdDeviation="2.0"/><feColorMatrix in="blurOut" result="blurOut2" type="matrix" values="0 0 0 0 0 0 0 0 0 0 0 0 0 0 0 0 0 0 .4 0"/><feOffset dx="4.0" dy="4.0" in="blurOut2" result="blurOut3"/><feBlend in="SourceGraphic" in2="blurOut3" mode="normal"/></filter></defs><g><!--MD5=[24f15571321cce40e07cd8fc99bbf100]
class company--><rect codeLine="21" fill="#FEFECE" filter="url(#feo4anu86jqps)" height="48" id="company" style="stroke:#A80036;stroke-width:1.5;" width="82" x="301.5" y="7"/><ellipse cx="316.5" cy="23" fill="#ADD1B2" rx="11" ry="11" style="stroke:#A80036;stroke-width:1.0;"/><path d="M318.5,19.5 Q318.7031,19 318.9375,18.75 Q319.1719,18.5 319.4375,18.5 Q319.9063,18.5 320.2031,18.7813 Q320.5,19.0625 320.5,19.7188 L320.5,21.2813 Q320.5,21.9375 320.2188,22.2188 Q319.9375,22.5 319.5,22.5 Q319.1094,22.5 318.8594,22.3281 Q318.6094,22.1563 318.5,21.7031 Q318.4531,21.3906 318.2813,21.2188 Q317.9688,20.8906 317.4063,20.7031 Q316.8438,20.5 316.2813,20.5 Q315.5781,20.5 314.9844,20.7813 Q314.4063,21.0625 313.9531,21.6875 Q313.5,22.3125 313.5,23.1719 L313.5,24.0938 Q313.5,25.125 314.3438,25.8125 Q315.1875,26.5 316.6875,26.5 Q317.5781,26.5 318.2031,26.2969 Q318.5625,26.1875 318.9688,25.8281 Q319.2344,25.625 319.375,25.5625 Q319.5156,25.5 319.6875,25.5 Q320.0156,25.5 320.25,25.7656 Q320.5,26.0156 320.5,26.375 Q320.5,26.7188 320.1563,27.125 Q319.6563,27.7188 318.8594,28.0469 Q317.8125,28.5 316.5313,28.5 Q315.0313,28.5 313.8281,27.9063 Q312.8594,27.4375 312.1719,26.4219 Q311.5,25.4063 311.5,24.2031 L311.5,23.1094 Q311.5,21.8594 312.0938,20.7656 Q312.7031,19.6719 313.75,19.0938 Q314.8125,18.5 316,18.5 Q316.7188,18.5 317.3438,18.75 Q317.9688,19 318.5,19.5 Z " fill="#000000"/><text fill="#000000" font-family="sans-serif" font-size="12" lengthAdjust="spacing" textLength="50" x="330.5" y="27.9102">company</text><line style="stroke:#A80036;stroke-width:1.5;" x1="302.5" x2="382.5" y1="39" y2="39"/><line style="stroke:#A80036;stroke-width:1.5;" x1="302.5" x2="382.5" y1="47" y2="47"/><!--MD5=[64c527255c588b63837979dd69f95a7b]
class truck--><rect codeLine="43" fill="#FEFECE" filter="url(#feo4anu86jqps)" height="48" id="truck" style="stroke:#A80036;stroke-width:1.5;" width="58" x="67.5" y="434"/><ellipse cx="82.5" cy="450" fill="#ADD1B2" rx="11" ry="11" style="stroke:#A80036;stroke-width:1.0;"/><path d="M84.5,446.5 Q84.7031,446 84.9375,445.75 Q85.1719,445.5 85.4375,445.5 Q85.9063,445.5 86.2031,445.7813 Q86.5,446.0625 86.5,446.7188 L86.5,448.2813 Q86.5,448.9375 86.2188,449.2188 Q85.9375,449.5 85.5,449.5 Q85.1094,449.5 84.8594,449.3281 Q84.6094,449.1563 84.5,448.7031 Q84.4531,448.3906 84.2813,448.2188 Q83.9688,447.8906 83.4063,447.7031 Q82.8438,447.5 82.2813,447.5 Q81.5781,447.5 80.9844,447.7813 Q80.4063,448.0625 79.9531,448.6875 Q79.5,449.3125 79.5,450.1719 L79.5,451.0938 Q79.5,452.125 80.3438,452.8125 Q81.1875,453.5 82.6875,453.5 Q83.5781,453.5 84.2031,453.2969 Q84.5625,453.1875 84.9688,452.8281 Q85.2344,452.625 85.375,452.5625 Q85.5156,452.5 85.6875,452.5 Q86.0156,452.5 86.25,452.7656 Q86.5,453.0156 86.5,453.375 Q86.5,453.7188 86.1563,454.125 Q85.6563,454.7188 84.8594,455.0469 Q83.8125,455.5 82.5313,455.5 Q81.0313,455.5 79.8281,454.9063 Q78.8594,454.4375 78.1719,453.4219 Q77.5,452.4063 77.5,451.2031 L77.5,450.1094 Q77.5,448.8594 78.0938,447.7656 Q78.7031,446.6719 79.75,446.0938 Q80.8125,445.5 82,445.5 Q82.7188,445.5 83.3438,445.75 Q83.9688,446 84.5,446.5 Z " fill="#000000"/><text fill="#000000" font-family="sans-serif" font-size="12" lengthAdjust="spacing" textLength="26" x="96.5" y="454.9102">truck</text><line style="stroke:#A80036;stroke-width:1.5;" x1="68.5" x2="124.5" y1="466" y2="466"/><line style="stroke:#A80036;stroke-width:1.5;" x1="68.5" x2="124.5" y1="474" y2="474"/><!--MD5=[4ef6908475cadc30f0fafd08f4b25416]
class ship--><rect codeLine="46" fill="#FEFECE" filter="url(#feo4anu86jqps)" height="200.1953" id="ship" style="stroke:#A80036;stroke-width:1.5;" width="91" x="186" y="638"/><ellipse cx="216.75" cy="654" fill="#ADD1B2" rx="11" ry="11" style="stroke:#A80036;stroke-width:1.0;"/><path d="M218.75,650.5 Q218.9531,650 219.1875,649.75 Q219.4219,649.5 219.6875,649.5 Q220.1563,649.5 220.4531,649.7813 Q220.75,650.0625 220.75,650.7188 L220.75,652.2813 Q220.75,652.9375 220.4688,653.2188 Q220.1875,653.5 219.75,653.5 Q219.3594,653.5 219.1094,653.3281 Q218.8594,653.1563 218.75,652.7031 Q218.7031,652.3906 218.5313,652.2188 Q218.2188,651.8906 217.6563,651.7031 Q217.0938,651.5 216.5313,651.5 Q215.8281,651.5 215.2344,651.7813 Q214.6563,652.0625 214.2031,652.6875 Q213.75,653.3125 213.75,654.1719 L213.75,655.0938 Q213.75,656.125 214.5938,656.8125 Q215.4375,657.5 216.9375,657.5 Q217.8281,657.5 218.4531,657.2969 Q218.8125,657.1875 219.2188,656.8281 Q219.4844,656.625 219.625,656.5625 Q219.7656,656.5 219.9375,656.5 Q220.2656,656.5 220.5,656.7656 Q220.75,657.0156 220.75,657.375 Q220.75,657.7188 220.4063,658.125 Q219.9063,658.7188 219.1094,659.0469 Q218.0625,659.5 216.7813,659.5 Q215.2813,659.5 214.0781,658.9063 Q213.1094,658.4375 212.4219,657.4219 Q211.75,656.4063 211.75,655.2031 L211.75,654.1094 Q211.75,652.8594 212.3438,651.7656 Q212.9531,650.6719 214,650.0938 Q215.0625,649.5 216.25,649.5 Q216.9688,649.5 217.5938,649.75 Q218.2188,650 218.75,650.5 Z " fill="#000000"/><text fill="#000000" font-family="sans-serif" font-size="12" lengthAdjust="spacing" textLength="24" x="234.25" y="658.9102">ship</text><line style="stroke:#A80036;stroke-width:1.5;" x1="187" x2="276" y1="670" y2="670"/><rect fill="none" height="6" style="stroke:#C82930;stroke-width:1.0;" width="6" x="194" y="678"/><text fill="#000000" font-family="sans-serif" font-size="11" lengthAdjust="spacing" textLength="24" x="206" y="685.4189">mmsi</text><rect fill="none" height="6" style="stroke:#C82930;stroke-width:1.0;" width="6" x="194" y="691.8359"/><text fill="#000000" font-family="sans-serif" font-size="11" lengthAdjust="spacing" textLength="26" x="206" y="699.2549">name</text><rect fill="none" height="6" style="stroke:#C82930;stroke-width:1.0;" width="6" x="194" y="705.6719"/><text fill="#000000" font-family="sans-serif" font-size="11" lengthAdjust="spacing" textLength="16" x="206" y="713.0908">imo</text><rect fill="none" height="6" style="stroke:#C82930;stroke-width:1.0;" width="6" x="194" y="719.5078"/><text fill="#000000" font-family="sans-serif" font-size="11" lengthAdjust="spacing" textLength="65" x="206" y="726.9268">nrGenerators</text><rect fill="none" height="6" style="stroke:#C82930;stroke-width:1.0;" width="6" x="194" y="733.3438"/><text fill="#000000" font-family="sans-serif" font-size="11" lengthAdjust="spacing" textLength="59" x="206" y="740.7627">generatorPo</text><rect fill="none" height="6" style="stroke:#C82930;stroke-width:1.0;" width="6" x="194" y="747.1797"/><text fill="#000000" font-family="sans-serif" font-size="11" lengthAdjust="spacing" textLength="37" x="206" y="754.5986">callSign</text><rect fill="none" height="6" style="stroke:#C82930;stroke-width:1.0;" width="6" x="194" y="761.0156"/><text fill="#000000" font-family="sans-serif" font-size="11" lengthAdjust="spacing" textLength="56" x="206" y="768.4346">vesselType</text><rect fill="none" height="6" style="stroke:#C82930;stroke-width:1.0;" width="6" x="194" y="774.8516"/><text fill="#000000" font-family="sans-serif" font-size="11" lengthAdjust="spacing" textLength="29" x="206" y="782.2705">length</text><rect fill="none" height="6" style="stroke:#C82930;stroke-width:1.0;" width="6" x="194" y="788.6875"/><text fill="#000000" font-family="sans-serif" font-size="11" lengthAdjust="spacing" textLength="27" x="206" y="796.1064">width</text><rect fill="none" height="6" style="stroke:#C82930;stroke-width:1.0;" width="6" x="194" y="802.5234"/><text fill="#000000" font-family="sans-serif" font-size="11" lengthAdjust="spacing" textLength="41" x="206" y="809.9424">capacity</text><rect fill="none" height="6" style="stroke:#C82930;stroke-width:1.0;" width="6" x="194" y="816.3594"/><text fill="#000000" font-family="sans-serif" font-size="11" lengthAdjust="spacing" textLength="23" x="206" y="823.7783">draft</text><line style="stroke:#A80036;stroke-width:1.5;" x1="187" x2="276" y1="830.1953" y2="830.1953"/><!--MD5=[cbfa38ecaceb4cf46d3e8f433ec21726]
class shipCrew--><rect codeLine="30" fill="#FEFECE" filter="url(#feo4anu86jqps)" height="48" id="shipCrew" style="stroke:#A80036;stroke-width:1.5;" width="85" x="250" y="512"/><ellipse cx="265" cy="528" fill="#ADD1B2" rx="11" ry="11" style="stroke:#A80036;stroke-width:1.0;"/><path d="M267,524.5 Q267.2031,524 267.4375,523.75 Q267.6719,523.5 267.9375,523.5 Q268.4063,523.5 268.7031,523.7813 Q269,524.0625 269,524.7188 L269,526.2813 Q269,526.9375 268.7188,527.2188 Q268.4375,527.5 268,527.5 Q267.6094,527.5 267.3594,527.3281 Q267.1094,527.1563 267,526.7031 Q266.9531,526.3906 266.7813,526.2188 Q266.4688,525.8906 265.9063,525.7031 Q265.3438,525.5 264.7813,525.5 Q264.0781,525.5 263.4844,525.7813 Q262.9063,526.0625 262.4531,526.6875 Q262,527.3125 262,528.1719 L262,529.0938 Q262,530.125 262.8438,530.8125 Q263.6875,531.5 265.1875,531.5 Q266.0781,531.5 266.7031,531.2969 Q267.0625,531.1875 267.4688,530.8281 Q267.7344,530.625 267.875,530.5625 Q268.0156,530.5 268.1875,530.5 Q268.5156,530.5 268.75,530.7656 Q269,531.0156 269,531.375 Q269,531.7188 268.6563,532.125 Q268.1563,532.7188 267.3594,533.0469 Q266.3125,533.5 265.0313,533.5 Q263.5313,533.5 262.3281,532.9063 Q261.3594,532.4375 260.6719,531.4219 Q260,530.4063 260,529.2031 L260,528.1094 Q260,526.8594 260.5938,525.7656 Q261.2031,524.6719 262.25,524.0938 Q263.3125,523.5 264.5,523.5 Q265.2188,523.5 265.8438,523.75 Q266.4688,524 267,524.5 Z " fill="#000000"/><text fill="#000000" font-family="sans-serif" font-size="12" lengthAdjust="spacing" textLength="53" x="279" y="532.9102">shipCrew</text><line style="stroke:#A80036;stroke-width:1.5;" x1="251" x2="334" y1="544" y2="544"/><line style="stroke:#A80036;stroke-width:1.5;" x1="251" x2="334" y1="552" y2="552"/><!--MD5=[d97d4a208dedb56357fb47beb16f6d34]
class warehouse--><rect codeLine="85" fill="#FEFECE" filter="url(#feo4anu86jqps)" height="103.3438" id="warehouse" style="stroke:#A80036;stroke-width:1.5;" width="94" x="345.5" y="133"/><ellipse cx="360.5" cy="149" fill="#ADD1B2" rx="11" ry="11" style="stroke:#A80036;stroke-width:1.0;"/><path d="M362.5,145.5 Q362.7031,145 362.9375,144.75 Q363.1719,144.5 363.4375,144.5 Q363.9063,144.5 364.2031,144.7813 Q364.5,145.0625 364.5,145.7188 L364.5,147.2813 Q364.5,147.9375 364.2188,148.2188 Q363.9375,148.5 363.5,148.5 Q363.1094,148.5 362.8594,148.3281 Q362.6094,148.1563 362.5,147.7031 Q362.4531,147.3906 362.2813,147.2188 Q361.9688,146.8906 361.4063,146.7031 Q360.8438,146.5 360.2813,146.5 Q359.5781,146.5 358.9844,146.7813 Q358.4063,147.0625 357.9531,147.6875 Q357.5,148.3125 357.5,149.1719 L357.5,150.0938 Q357.5,151.125 358.3438,151.8125 Q359.1875,152.5 360.6875,152.5 Q361.5781,152.5 362.2031,152.2969 Q362.5625,152.1875 362.9688,151.8281 Q363.2344,151.625 363.375,151.5625 Q363.5156,151.5 363.6875,151.5 Q364.0156,151.5 364.25,151.7656 Q364.5,152.0156 364.5,152.375 Q364.5,152.7188 364.1563,153.125 Q363.6563,153.7188 362.8594,154.0469 Q361.8125,154.5 360.5313,154.5 Q359.0313,154.5 357.8281,153.9063 Q356.8594,153.4375 356.1719,152.4219 Q355.5,151.4063 355.5,150.2031 L355.5,149.1094 Q355.5,147.8594 356.0938,146.7656 Q356.7031,145.6719 357.75,145.0938 Q358.8125,144.5 360,144.5 Q360.7188,144.5 361.3438,144.75 Q361.9688,145 362.5,145.5 Z " fill="#000000"/><text fill="#000000" font-family="sans-serif" font-size="12" lengthAdjust="spacing" textLength="62" x="374.5" y="153.9102">warehouse</text><line style="stroke:#A80036;stroke-width:1.5;" x1="346.5" x2="438.5" y1="165" y2="165"/><rect fill="none" height="6" style="stroke:#C82930;stroke-width:1.0;" width="6" x="353.5" y="173"/><text fill="#000000" font-family="sans-serif" font-size="11" lengthAdjust="spacing" textLength="64" x="365.5" y="180.4189">idWarehouse</text><rect fill="none" height="6" style="stroke:#C82930;stroke-width:1.0;" width="6" x="353.5" y="186.8359"/><text fill="#000000" font-family="sans-serif" font-size="11" lengthAdjust="spacing" textLength="26" x="365.5" y="194.2549">name</text><rect fill="none" height="6" style="stroke:#C82930;stroke-width:1.0;" width="6" x="353.5" y="200.6719"/><text fill="#000000" font-family="sans-serif" font-size="11" lengthAdjust="spacing" textLength="44" x="365.5" y="208.0908">continent</text><rect fill="none" height="6" style="stroke:#C82930;stroke-width:1.0;" width="6" x="353.5" y="214.5078"/><text fill="#000000" font-family="sans-serif" font-size="11" lengthAdjust="spacing" textLength="37" x="365.5" y="221.9268">country</text><line style="stroke:#A80036;stroke-width:1.5;" x1="346.5" x2="438.5" y1="228.3438" y2="228.3438"/><!--MD5=[e3f72718913f1e037c5bc72e44de49f6]
class client--><rect fill="#FEFECE" filter="url(#feo4anu86jqps)" height="48" id="client" style="stroke:#A80036;stroke-width:1.5;" width="61" x="475" y="160.5"/><ellipse cx="490" cy="176.5" fill="#ADD1B2" rx="11" ry="11" style="stroke:#A80036;stroke-width:1.0;"/><path d="M492,173 Q492.2031,172.5 492.4375,172.25 Q492.6719,172 492.9375,172 Q493.4063,172 493.7031,172.2813 Q494,172.5625 494,173.2188 L494,174.7813 Q494,175.4375 493.7188,175.7188 Q493.4375,176 493,176 Q492.6094,176 492.3594,175.8281 Q492.1094,175.6563 492,175.2031 Q491.9531,174.8906 491.7813,174.7188 Q491.4688,174.3906 490.9063,174.2031 Q490.3438,174 489.7813,174 Q489.0781,174 488.4844,174.2813 Q487.9063,174.5625 487.4531,175.1875 Q487,175.8125 487,176.6719 L487,177.5938 Q487,178.625 487.8438,179.3125 Q488.6875,180 490.1875,180 Q491.0781,180 491.7031,179.7969 Q492.0625,179.6875 492.4688,179.3281 Q492.7344,179.125 492.875,179.0625 Q493.0156,179 493.1875,179 Q493.5156,179 493.75,179.2656 Q494,179.5156 494,179.875 Q494,180.2188 493.6563,180.625 Q493.1563,181.2188 492.3594,181.5469 Q491.3125,182 490.0313,182 Q488.5313,182 487.3281,181.4063 Q486.3594,180.9375 485.6719,179.9219 Q485,178.9063 485,177.7031 L485,176.6094 Q485,175.3594 485.5938,174.2656 Q486.2031,173.1719 487.25,172.5938 Q488.3125,172 489.5,172 Q490.2188,172 490.8438,172.25 Q491.4688,172.5 492,173 Z " fill="#000000"/><text fill="#000000" font-family="sans-serif" font-size="12" lengthAdjust="spacing" textLength="29" x="504" y="181.4102">client</text><line style="stroke:#A80036;stroke-width:1.5;" x1="476" x2="535" y1="192.5" y2="192.5"/><line style="stroke:#A80036;stroke-width:1.5;" x1="476" x2="535" y1="200.5" y2="200.5"/><!--MD5=[3faf8ef4421de4514b6364bc5b2bd700]
class port--><rect codeLine="78" fill="#FEFECE" filter="url(#feo4anu86jqps)" height="103.3438" id="port" style="stroke:#A80036;stroke-width:1.5;" width="70" x="571.5" y="133"/><ellipse cx="594.15" cy="149" fill="#ADD1B2" rx="11" ry="11" style="stroke:#A80036;stroke-width:1.0;"/><path d="M596.15,145.5 Q596.3531,145 596.5875,144.75 Q596.8219,144.5 597.0875,144.5 Q597.5563,144.5 597.8531,144.7813 Q598.15,145.0625 598.15,145.7188 L598.15,147.2813 Q598.15,147.9375 597.8688,148.2188 Q597.5875,148.5 597.15,148.5 Q596.7594,148.5 596.5094,148.3281 Q596.2594,148.1563 596.15,147.7031 Q596.1031,147.3906 595.9313,147.2188 Q595.6188,146.8906 595.0563,146.7031 Q594.4938,146.5 593.9313,146.5 Q593.2281,146.5 592.6344,146.7813 Q592.0563,147.0625 591.6031,147.6875 Q591.15,148.3125 591.15,149.1719 L591.15,150.0938 Q591.15,151.125 591.9938,151.8125 Q592.8375,152.5 594.3375,152.5 Q595.2281,152.5 595.8531,152.2969 Q596.2125,152.1875 596.6188,151.8281 Q596.8844,151.625 597.025,151.5625 Q597.1656,151.5 597.3375,151.5 Q597.6656,151.5 597.9,151.7656 Q598.15,152.0156 598.15,152.375 Q598.15,152.7188 597.8063,153.125 Q597.3063,153.7188 596.5094,154.0469 Q595.4625,154.5 594.1813,154.5 Q592.6813,154.5 591.4781,153.9063 Q590.5094,153.4375 589.8219,152.4219 Q589.15,151.4063 589.15,150.2031 L589.15,149.1094 Q589.15,147.8594 589.7438,146.7656 Q590.3531,145.6719 591.4,145.0938 Q592.4625,144.5 593.65,144.5 Q594.3688,144.5 594.9938,144.75 Q595.6188,145 596.15,145.5 Z " fill="#000000"/><text fill="#000000" font-family="sans-serif" font-size="12" lengthAdjust="spacing" textLength="21" x="609.85" y="153.9102">port</text><line style="stroke:#A80036;stroke-width:1.5;" x1="572.5" x2="640.5" y1="165" y2="165"/><rect fill="none" height="6" style="stroke:#C82930;stroke-width:1.0;" width="6" x="579.5" y="173"/><text fill="#000000" font-family="sans-serif" font-size="11" lengthAdjust="spacing" textLength="27" x="591.5" y="180.4189">idPort</text><rect fill="none" height="6" style="stroke:#C82930;stroke-width:1.0;" width="6" x="579.5" y="186.8359"/><text fill="#000000" font-family="sans-serif" font-size="11" lengthAdjust="spacing" textLength="26" x="591.5" y="194.2549">name</text><rect fill="none" height="6" style="stroke:#C82930;stroke-width:1.0;" width="6" x="579.5" y="200.6719"/><text fill="#000000" font-family="sans-serif" font-size="11" lengthAdjust="spacing" textLength="44" x="591.5" y="208.0908">continent</text><rect fill="none" height="6" style="stroke:#C82930;stroke-width:1.0;" width="6" x="579.5" y="214.5078"/><text fill="#000000" font-family="sans-serif" font-size="11" lengthAdjust="spacing" textLength="37" x="591.5" y="221.9268">country</text><line style="stroke:#A80036;stroke-width:1.5;" x1="572.5" x2="640.5" y1="228.3438" y2="228.3438"/><!--MD5=[1816e661d25430e6ffb111b8de0cbab6]
class container--><rect codeLine="33" fill="#FEFECE" filter="url(#feo4anu86jqps)" height="144.8516" id="container" style="stroke:#A80036;stroke-width:1.5;" width="85" x="74" y="930"/><ellipse cx="89.9" cy="946" fill="#ADD1B2" rx="11" ry="11" style="stroke:#A80036;stroke-width:1.0;"/><path d="M91.9,942.5 Q92.1031,942 92.3375,941.75 Q92.5719,941.5 92.8375,941.5 Q93.3063,941.5 93.6031,941.7813 Q93.9,942.0625 93.9,942.7188 L93.9,944.2813 Q93.9,944.9375 93.6188,945.2188 Q93.3375,945.5 92.9,945.5 Q92.5094,945.5 92.2594,945.3281 Q92.0094,945.1563 91.9,944.7031 Q91.8531,944.3906 91.6813,944.2188 Q91.3688,943.8906 90.8063,943.7031 Q90.2438,943.5 89.6813,943.5 Q88.9781,943.5 88.3844,943.7813 Q87.8063,944.0625 87.3531,944.6875 Q86.9,945.3125 86.9,946.1719 L86.9,947.0938 Q86.9,948.125 87.7438,948.8125 Q88.5875,949.5 90.0875,949.5 Q90.9781,949.5 91.6031,949.2969 Q91.9625,949.1875 92.3688,948.8281 Q92.6344,948.625 92.775,948.5625 Q92.9156,948.5 93.0875,948.5 Q93.4156,948.5 93.65,948.7656 Q93.9,949.0156 93.9,949.375 Q93.9,949.7188 93.5563,950.125 Q93.0563,950.7188 92.2594,951.0469 Q91.2125,951.5 89.9313,951.5 Q88.4313,951.5 87.2281,950.9063 Q86.2594,950.4375 85.5719,949.4219 Q84.9,948.4063 84.9,947.2031 L84.9,946.1094 Q84.9,944.8594 85.4938,943.7656 Q86.1031,942.6719 87.15,942.0938 Q88.2125,941.5 89.4,941.5 Q90.1188,941.5 90.7438,941.75 Q91.3688,942 91.9,942.5 Z " fill="#000000"/><text fill="#000000" font-family="sans-serif" font-size="12" lengthAdjust="spacing" textLength="51" x="104.1" y="950.9102">container</text><line style="stroke:#A80036;stroke-width:1.5;" x1="75" x2="158" y1="962" y2="962"/><rect fill="none" height="6" style="stroke:#C82930;stroke-width:1.0;" width="6" x="82" y="970"/><text fill="#000000" font-family="sans-serif" font-size="11" lengthAdjust="spacing" textLength="54" x="94" y="977.4189">idContainer</text><rect fill="none" height="6" style="stroke:#C82930;stroke-width:1.0;" width="6" x="82" y="983.8359"/><text fill="#000000" font-family="sans-serif" font-size="11" lengthAdjust="spacing" textLength="38" x="94" y="991.2549">payload</text><rect fill="none" height="6" style="stroke:#C82930;stroke-width:1.0;" width="6" x="82" y="997.6719"/><text fill="#000000" font-family="sans-serif" font-size="11" lengthAdjust="spacing" textLength="19" x="94" y="1005.0908">tare</text><rect fill="none" height="6" style="stroke:#C82930;stroke-width:1.0;" width="6" x="82" y="1011.5078"/><text fill="#000000" font-family="sans-serif" font-size="11" lengthAdjust="spacing" textLength="28" x="94" y="1018.9268">gross</text><rect fill="none" height="6" style="stroke:#C82930;stroke-width:1.0;" width="6" x="82" y="1025.3438"/><text fill="#000000" font-family="sans-serif" font-size="11" lengthAdjust="spacing" textLength="39" x="94" y="1032.7627">isoCode</text><rect fill="none" height="6" style="stroke:#C82930;stroke-width:1.0;" width="6" x="82" y="1039.1797"/><text fill="#000000" font-family="sans-serif" font-size="11" lengthAdjust="spacing" textLength="58" x="94" y="1046.5986">temperature</text><rect fill="none" height="6" style="stroke:#C82930;stroke-width:1.0;" width="6" x="82" y="1053.0156"/><text fill="#000000" font-family="sans-serif" font-size="11" lengthAdjust="spacing" textLength="59" x="94" y="1060.4346">refrigeration</text><line style="stroke:#A80036;stroke-width:1.5;" x1="75" x2="158" y1="1066.8516" y2="1066.8516"/><!--MD5=[a64a835c3d62471a77f615251fdde58a]
class Position--><rect codeLine="66" fill="#FEFECE" filter="url(#feo4anu86jqps)" height="172.5234" id="Position" style="stroke:#A80036;stroke-width:1.5;" width="108" x="213.5" y="916"/><ellipse cx="242.45" cy="932" fill="#ADD1B2" rx="11" ry="11" style="stroke:#A80036;stroke-width:1.0;"/><path d="M244.45,928.5 Q244.6531,928 244.8875,927.75 Q245.1219,927.5 245.3875,927.5 Q245.8563,927.5 246.1531,927.7813 Q246.45,928.0625 246.45,928.7188 L246.45,930.2813 Q246.45,930.9375 246.1688,931.2188 Q245.8875,931.5 245.45,931.5 Q245.0594,931.5 244.8094,931.3281 Q244.5594,931.1563 244.45,930.7031 Q244.4031,930.3906 244.2313,930.2188 Q243.9188,929.8906 243.3563,929.7031 Q242.7938,929.5 242.2313,929.5 Q241.5281,929.5 240.9344,929.7813 Q240.3563,930.0625 239.9031,930.6875 Q239.45,931.3125 239.45,932.1719 L239.45,933.0938 Q239.45,934.125 240.2938,934.8125 Q241.1375,935.5 242.6375,935.5 Q243.5281,935.5 244.1531,935.2969 Q244.5125,935.1875 244.9188,934.8281 Q245.1844,934.625 245.325,934.5625 Q245.4656,934.5 245.6375,934.5 Q245.9656,934.5 246.2,934.7656 Q246.45,935.0156 246.45,935.375 Q246.45,935.7188 246.1063,936.125 Q245.6063,936.7188 244.8094,937.0469 Q243.7625,937.5 242.4813,937.5 Q240.9813,937.5 239.7781,936.9063 Q238.8094,936.4375 238.1219,935.4219 Q237.45,934.4063 237.45,933.2031 L237.45,932.1094 Q237.45,930.8594 238.0438,929.7656 Q238.6531,928.6719 239.7,928.0938 Q240.7625,927.5 241.95,927.5 Q242.6688,927.5 243.2938,927.75 Q243.9188,928 244.45,928.5 Z " fill="#000000"/><text fill="#000000" font-family="sans-serif" font-size="12" lengthAdjust="spacing" textLength="45" x="259.55" y="936.9102">Position</text><line style="stroke:#A80036;stroke-width:1.5;" x1="214.5" x2="320.5" y1="948" y2="948"/><rect fill="none" height="6" style="stroke:#C82930;stroke-width:1.0;" width="6" x="221.5" y="956"/><text fill="#000000" font-family="sans-serif" font-size="11" lengthAdjust="spacing" textLength="24" x="233.5" y="963.4189">mmsi</text><rect fill="none" height="6" style="stroke:#C82930;stroke-width:1.0;" width="6" x="221.5" y="969.8359"/><text fill="#000000" font-family="sans-serif" font-size="11" lengthAdjust="spacing" textLength="68" x="233.5" y="977.2549">baseDateTime</text><rect fill="none" height="6" style="stroke:#C82930;stroke-width:1.0;" width="6" x="221.5" y="983.6719"/><text fill="#000000" font-family="sans-serif" font-size="11" lengthAdjust="spacing" textLength="34" x="233.5" y="991.0908">latitude</text><rect fill="none" height="6" style="stroke:#C82930;stroke-width:1.0;" width="6" x="221.5" y="997.5078"/><text fill="#000000" font-family="sans-serif" font-size="11" lengthAdjust="spacing" textLength="43" x="233.5" y="1004.9268">longitude</text><rect fill="none" height="6" style="stroke:#C82930;stroke-width:1.0;" width="6" x="221.5" y="1011.3438"/><text fill="#000000" font-family="sans-serif" font-size="11" lengthAdjust="spacing" textLength="38" x="233.5" y="1018.7627">heading</text><rect fill="none" height="6" style="stroke:#C82930;stroke-width:1.0;" width="6" x="221.5" y="1025.1797"/><text fill="#000000" font-family="sans-serif" font-size="11" lengthAdjust="spacing" textLength="18" x="233.5" y="1032.5986">sog</text><rect fill="none" height="6" style="stroke:#C82930;stroke-width:1.0;" width="6" x="221.5" y="1039.0156"/><text fill="#000000" font-family="sans-serif" font-size="11" lengthAdjust="spacing" textLength="18" x="233.5" y="1046.4346">cog</text><rect fill="none" height="6" style="stroke:#C82930;stroke-width:1.0;" width="6" x="221.5" y="1052.8516"/><text fill="#000000" font-family="sans-serif" font-size="11" lengthAdjust="spacing" textLength="28" x="233.5" y="1060.2705">cargo</text><rect fill="none" height="6" style="stroke:#C82930;stroke-width:1.0;" width="6" x="221.5" y="1066.6875"/><text fill="#000000" font-family="sans-serif" font-size="11" lengthAdjust="spacing" textLength="82" x="233.5" y="1074.1064">transceiverClass</text><line style="stroke:#A80036;stroke-width:1.5;" x1="214.5" x2="320.5" y1="1080.5234" y2="1080.5234"/><!--MD5=[fe638be5837ed2b68aa348896c684e86]
class dimension--><rect codeLine="24" fill="#FEFECE" filter="url(#feo4anu86jqps)" height="89.5078" id="dimension" style="stroke:#A80036;stroke-width:1.5;" width="91" x="7" y="1167"/><ellipse cx="22" cy="1183" fill="#ADD1B2" rx="11" ry="11" style="stroke:#A80036;stroke-width:1.0;"/><path d="M24,1179.5 Q24.2031,1179 24.4375,1178.75 Q24.6719,1178.5 24.9375,1178.5 Q25.4063,1178.5 25.7031,1178.7813 Q26,1179.0625 26,1179.7188 L26,1181.2813 Q26,1181.9375 25.7188,1182.2188 Q25.4375,1182.5 25,1182.5 Q24.6094,1182.5 24.3594,1182.3281 Q24.1094,1182.1563 24,1181.7031 Q23.9531,1181.3906 23.7813,1181.2188 Q23.4688,1180.8906 22.9063,1180.7031 Q22.3438,1180.5 21.7813,1180.5 Q21.0781,1180.5 20.4844,1180.7813 Q19.9063,1181.0625 19.4531,1181.6875 Q19,1182.3125 19,1183.1719 L19,1184.0938 Q19,1185.125 19.8438,1185.8125 Q20.6875,1186.5 22.1875,1186.5 Q23.0781,1186.5 23.7031,1186.2969 Q24.0625,1186.1875 24.4688,1185.8281 Q24.7344,1185.625 24.875,1185.5625 Q25.0156,1185.5 25.1875,1185.5 Q25.5156,1185.5 25.75,1185.7656 Q26,1186.0156 26,1186.375 Q26,1186.7188 25.6563,1187.125 Q25.1563,1187.7188 24.3594,1188.0469 Q23.3125,1188.5 22.0313,1188.5 Q20.5313,1188.5 19.3281,1187.9063 Q18.3594,1187.4375 17.6719,1186.4219 Q17,1185.4063 17,1184.2031 L17,1183.1094 Q17,1181.8594 17.5938,1180.7656 Q18.2031,1179.6719 19.25,1179.0938 Q20.3125,1178.5 21.5,1178.5 Q22.2188,1178.5 22.8438,1178.75 Q23.4688,1179 24,1179.5 Z " fill="#000000"/><text fill="#000000" font-family="sans-serif" font-size="12" lengthAdjust="spacing" textLength="59" x="36" y="1187.9102">dimension</text><line style="stroke:#A80036;stroke-width:1.5;" x1="8" x2="97" y1="1199" y2="1199"/><rect fill="none" height="6" style="stroke:#C82930;stroke-width:1.0;" width="6" x="15" y="1207"/><text fill="#000000" font-family="sans-serif" font-size="11" lengthAdjust="spacing" textLength="27" x="27" y="1214.4189">width</text><rect fill="none" height="6" style="stroke:#C82930;stroke-width:1.0;" width="6" x="15" y="1220.8359"/><text fill="#000000" font-family="sans-serif" font-size="11" lengthAdjust="spacing" textLength="29" x="27" y="1228.2549">height</text><rect fill="none" height="6" style="stroke:#C82930;stroke-width:1.0;" width="6" x="15" y="1234.6719"/><text fill="#000000" font-family="sans-serif" font-size="11" lengthAdjust="spacing" textLength="29" x="27" y="1242.0908">length</text><line style="stroke:#A80036;stroke-width:1.5;" x1="8" x2="97" y1="1248.5078" y2="1248.5078"/><!--MD5=[509724e5c530a64704ad337dfeda7d4c]
class coordinates--><rect codeLine="60" fill="#FEFECE" filter="url(#feo4anu86jqps)" height="89.5078" id="coordinates" style="stroke:#A80036;stroke-width:1.5;" width="97" x="133" y="1167"/><ellipse cx="148" cy="1183" fill="#ADD1B2" rx="11" ry="11" style="stroke:#A80036;stroke-width:1.0;"/><path d="M150,1179.5 Q150.2031,1179 150.4375,1178.75 Q150.6719,1178.5 150.9375,1178.5 Q151.4063,1178.5 151.7031,1178.7813 Q152,1179.0625 152,1179.7188 L152,1181.2813 Q152,1181.9375 151.7188,1182.2188 Q151.4375,1182.5 151,1182.5 Q150.6094,1182.5 150.3594,1182.3281 Q150.1094,1182.1563 150,1181.7031 Q149.9531,1181.3906 149.7813,1181.2188 Q149.4688,1180.8906 148.9063,1180.7031 Q148.3438,1180.5 147.7813,1180.5 Q147.0781,1180.5 146.4844,1180.7813 Q145.9063,1181.0625 145.4531,1181.6875 Q145,1182.3125 145,1183.1719 L145,1184.0938 Q145,1185.125 145.8438,1185.8125 Q146.6875,1186.5 148.1875,1186.5 Q149.0781,1186.5 149.7031,1186.2969 Q150.0625,1186.1875 150.4688,1185.8281 Q150.7344,1185.625 150.875,1185.5625 Q151.0156,1185.5 151.1875,1185.5 Q151.5156,1185.5 151.75,1185.7656 Q152,1186.0156 152,1186.375 Q152,1186.7188 151.6563,1187.125 Q151.1563,1187.7188 150.3594,1188.0469 Q149.3125,1188.5 148.0313,1188.5 Q146.5313,1188.5 145.3281,1187.9063 Q144.3594,1187.4375 143.6719,1186.4219 Q143,1185.4063 143,1184.2031 L143,1183.1094 Q143,1181.8594 143.5938,1180.7656 Q144.2031,1179.6719 145.25,1179.0938 Q146.3125,1178.5 147.5,1178.5 Q148.2188,1178.5 148.8438,1178.75 Q149.4688,1179 150,1179.5 Z " fill="#000000"/><text fill="#000000" font-family="sans-serif" font-size="12" lengthAdjust="spacing" textLength="65" x="162" y="1187.9102">coordinates</text><line style="stroke:#A80036;stroke-width:1.5;" x1="134" x2="229" y1="1199" y2="1199"/><rect fill="none" height="6" style="stroke:#C82930;stroke-width:1.0;" width="6" x="141" y="1207"/><text fill="#000000" font-family="sans-serif" font-size="11" lengthAdjust="spacing" textLength="34" x="153" y="1214.4189">xValue</text><rect fill="none" height="6" style="stroke:#C82930;stroke-width:1.0;" width="6" x="141" y="1220.8359"/><text fill="#000000" font-family="sans-serif" font-size="11" lengthAdjust="spacing" textLength="34" x="153" y="1228.2549">yValue</text><rect fill="none" height="6" style="stroke:#C82930;stroke-width:1.0;" width="6" x="141" y="1234.6719"/><text fill="#000000" font-family="sans-serif" font-size="11" lengthAdjust="spacing" textLength="34" x="153" y="1242.0908">zValue</text><line style="stroke:#A80036;stroke-width:1.5;" x1="134" x2="229" y1="1248.5078" y2="1248.5078"/><!--MD5=[db60dd7f2a7cf2909f3631478130250d]
class cargoManifest--><rect codeLine="92" fill="#FEFECE" filter="url(#feo4anu86jqps)" height="89.5078" id="cargoManifest" style="stroke:#A80036;stroke-width:1.5;" width="134" x="345.5" y="314"/><ellipse cx="371.75" cy="330" fill="#ADD1B2" rx="11" ry="11" style="stroke:#A80036;stroke-width:1.0;"/><path d="M373.75,326.5 Q373.9531,326 374.1875,325.75 Q374.4219,325.5 374.6875,325.5 Q375.1563,325.5 375.4531,325.7813 Q375.75,326.0625 375.75,326.7188 L375.75,328.2813 Q375.75,328.9375 375.4688,329.2188 Q375.1875,329.5 374.75,329.5 Q374.3594,329.5 374.1094,329.3281 Q373.8594,329.1563 373.75,328.7031 Q373.7031,328.3906 373.5313,328.2188 Q373.2188,327.8906 372.6563,327.7031 Q372.0938,327.5 371.5313,327.5 Q370.8281,327.5 370.2344,327.7813 Q369.6563,328.0625 369.2031,328.6875 Q368.75,329.3125 368.75,330.1719 L368.75,331.0938 Q368.75,332.125 369.5938,332.8125 Q370.4375,333.5 371.9375,333.5 Q372.8281,333.5 373.4531,333.2969 Q373.8125,333.1875 374.2188,332.8281 Q374.4844,332.625 374.625,332.5625 Q374.7656,332.5 374.9375,332.5 Q375.2656,332.5 375.5,332.7656 Q375.75,333.0156 375.75,333.375 Q375.75,333.7188 375.4063,334.125 Q374.9063,334.7188 374.1094,335.0469 Q373.0625,335.5 371.7813,335.5 Q370.2813,335.5 369.0781,334.9063 Q368.1094,334.4375 367.4219,333.4219 Q366.75,332.4063 366.75,331.2031 L366.75,330.1094 Q366.75,328.8594 367.3438,327.7656 Q367.9531,326.6719 369,326.0938 Q370.0625,325.5 371.25,325.5 Q371.9688,325.5 372.5938,325.75 Q373.2188,326 373.75,326.5 Z " fill="#000000"/><text fill="#000000" font-family="sans-serif" font-size="12" lengthAdjust="spacing" textLength="77" x="388.25" y="334.9102">cargoManifest</text><line style="stroke:#A80036;stroke-width:1.5;" x1="346.5" x2="478.5" y1="346" y2="346"/><rect fill="none" height="6" style="stroke:#C82930;stroke-width:1.0;" width="6" x="353.5" y="354"/><text fill="#000000" font-family="sans-serif" font-size="11" lengthAdjust="spacing" textLength="8" x="365.5" y="361.4189">id</text><rect fill="none" height="6" style="stroke:#C82930;stroke-width:1.0;" width="6" x="353.5" y="367.8359"/><text fill="#000000" font-family="sans-serif" font-size="11" lengthAdjust="spacing" textLength="82" x="365.5" y="375.2549">containerPosition</text><rect fill="none" height="6" style="stroke:#C82930;stroke-width:1.0;" width="6" x="353.5" y="381.6719"/><text fill="#000000" font-family="sans-serif" font-size="11" lengthAdjust="spacing" textLength="108" x="365.5" y="389.0908">containerGrossWeight</text><line style="stroke:#A80036;stroke-width:1.5;" x1="346.5" x2="478.5" y1="395.5078" y2="395.5078"/><!--MD5=[3811b93d7b2aac423034ed97d4315501]
link company to truck--><path codeLine="5" d="M301.4,35.57 C246.76,42.92 153.59,65.28 123.5,133 C77.2,237.2 87.16,378.69 93.42,433.74 " fill="none" id="company-truck" style="stroke:#A80036;stroke-width:1.0;"/><polygon fill="#000000" points="126.1851,189.1076,132.9778,182.451,127.7678,179.7297,126.1851,189.1076" style="stroke:#000000;stroke-width:1.0;"/><text fill="#000000" font-family="sans-serif" font-size="13" lengthAdjust="spacing" textLength="30" x="137.5" y="189.9951">owns</text><text fill="#000000" font-family="sans-serif" font-size="13" lengthAdjust="spacing" textLength="7" x="286.4556" y="32.4855">1</text><text fill="#000000" font-family="sans-serif" font-size="13" lengthAdjust="spacing" textLength="20" x="70.0683" y="423.0135">1..*</text><!--MD5=[71183a1b2aa80ebdb07a279baa02e2d3]
link company to ship--><path codeLine="6" d="M301.27,51.94 C257.48,76.33 194.5,122.09 194.5,183.5 C194.5,183.5 194.5,183.5 194.5,537 C194.5,570.19 199.49,605.97 205.8,637.97 " fill="none" id="company-ship" style="stroke:#A80036;stroke-width:1.0;"/><polygon fill="#000000" points="198.696,364.1107,203.0511,355.6559,197.2497,354.7108,198.696,364.1107" style="stroke:#000000;stroke-width:1.0;"/><text fill="#000000" font-family="sans-serif" font-size="13" lengthAdjust="spacing" textLength="30" x="208.5" y="364.4951">owns</text><text fill="#000000" font-family="sans-serif" font-size="13" lengthAdjust="spacing" textLength="7" x="286.582" y="51.6894">1</text><text fill="#000000" font-family="sans-serif" font-size="13" lengthAdjust="spacing" textLength="20" x="183.0667" y="627.2001">1..*</text><!--MD5=[0032cc8801d3d6cfb2257abb2ddcf7d2]
link company to shipCrew--><path codeLine="7" d="M338.64,55.21 C335.35,75.65 330.65,106.24 327.5,133 C310.59,276.67 298.19,450.13 294.02,511.84 " fill="none" id="company-shipCrew" style="stroke:#A80036;stroke-width:1.0;"/><polygon fill="#000000" points="318.0137,280.1521,321.8184,271.4357,315.9684,270.8641,318.0137,280.1521" style="stroke:#000000;stroke-width:1.0;"/><text fill="#000000" font-family="sans-serif" font-size="13" lengthAdjust="spacing" textLength="30" x="327.5" y="280.4951">owns</text><text fill="#000000" font-family="sans-serif" font-size="13" lengthAdjust="spacing" textLength="7" x="329.846" y="76.5992">1</text><text fill="#000000" font-family="sans-serif" font-size="13" lengthAdjust="spacing" textLength="20" x="271.847" y="501.1392">1..*</text><!--MD5=[c80291047f9b93ada3398226fa7b1706]
link company to warehouse--><path codeLine="8" d="M350.09,55.01 C356.9,75.62 367.11,106.57 375.81,132.94 " fill="none" id="company-warehouse" style="stroke:#A80036;stroke-width:1.0;"/><polygon fill="#000000" points="372.0671,98.9239,372.0231,89.4134,366.4414,91.2556,372.0671,98.9239" style="stroke:#000000;stroke-width:1.0;"/><text fill="#000000" font-family="sans-serif" font-size="13" lengthAdjust="spacing" textLength="21" x="379.5" y="99.4951">has</text><text fill="#000000" font-family="sans-serif" font-size="13" lengthAdjust="spacing" textLength="7" x="344.0869" y="76.3504">1</text><text fill="#000000" font-family="sans-serif" font-size="13" lengthAdjust="spacing" textLength="7" x="365.9708" y="122.06">1</text><!--MD5=[b21737660ed9305abb3c25d5d0758df0]
link company to client--><path codeLine="9" d="M373.52,55.22 C385.08,64.21 398.14,74.78 409.5,85 C431.7,104.97 435.66,111.62 456.5,133 C465.2,141.92 474.74,151.75 483.08,160.35 " fill="none" id="company-client" style="stroke:#A80036;stroke-width:1.0;"/><polygon fill="#000000" points="437.1077,97.6376,432.6161,89.2545,428.5465,93.4957,437.1077,97.6376" style="stroke:#000000;stroke-width:1.0;"/><text fill="#000000" font-family="sans-serif" font-size="13" lengthAdjust="spacing" textLength="21" x="442.5" y="99.4951">has</text><text fill="#000000" font-family="sans-serif" font-size="13" lengthAdjust="spacing" textLength="7" x="373.228" y="76.6116">1</text><text fill="#000000" font-family="sans-serif" font-size="13" lengthAdjust="spacing" textLength="7" x="469.438" y="149.6517">1</text><!--MD5=[5faf76743236b9be5a1a7b8bb0d30870]
link company to port--><path codeLine="10" d="M383.68,46.03 C428.3,62.47 500.24,92.67 553.5,133 C559.48,137.53 565.52,142.65 571.27,147.85 " fill="none" id="company-port" style="stroke:#A80036;stroke-width:1.0;"/><polygon fill="#000000" points="514.8944,96.561,508.3468,89.6631,505.5429,94.8291,514.8944,96.561" style="stroke:#000000;stroke-width:1.0;"/><text fill="#000000" font-family="sans-serif" font-size="13" lengthAdjust="spacing" textLength="21" x="519.5" y="99.4951">has</text><text fill="#000000" font-family="sans-serif" font-size="13" lengthAdjust="spacing" textLength="7" x="391.6386" y="44.8086">1</text><text fill="#000000" font-family="sans-serif" font-size="13" lengthAdjust="spacing" textLength="7" x="556.2819" y="136.1369">1</text><!--MD5=[99a13845952ab9dacdf59facf681ec78]
link ship to container--><path codeLine="11" d="M185.98,829.82 C179.94,842.57 173.95,855.56 168.5,868 C159.82,887.82 151.03,909.59 143.21,929.69 " fill="none" id="ship-container" style="stroke:#A80036;stroke-width:1.0;"/><polygon fill="#000000" points="171.5316,881.772,177.7941,874.6143,172.3908,872.3004,171.5316,881.772" style="stroke:#000000;stroke-width:1.0;"/><text fill="#000000" font-family="sans-serif" font-size="13" lengthAdjust="spacing" textLength="58" x="182.5" y="882.4951">transports</text><text fill="#000000" font-family="sans-serif" font-size="13" lengthAdjust="spacing" textLength="7" x="170.8611" y="841.2107">1</text><text fill="#000000" font-family="sans-serif" font-size="13" lengthAdjust="spacing" textLength="20" x="124.8549" y="919.255">1..*</text><!--MD5=[0adaa3cef74f75ab9c9f2f151f8bfebb]
link ship to Position--><path codeLine="12" d="M245.11,838.24 C248.61,863.79 252.36,891.07 255.76,915.87 " fill="none" id="ship-Position" style="stroke:#A80036;stroke-width:1.0;"/><polygon fill="#000000" points="258.1796,882.1294,259.8619,872.7688,254.0386,873.5677,258.1796,882.1294" style="stroke:#000000;stroke-width:1.0;"/><text fill="#000000" font-family="sans-serif" font-size="13" lengthAdjust="spacing" textLength="32" x="266.5" y="882.4951">has a</text><text fill="#000000" font-family="sans-serif" font-size="13" lengthAdjust="spacing" textLength="7" x="238.8525" y="859.6897">1</text><text fill="#000000" font-family="sans-serif" font-size="13" lengthAdjust="spacing" textLength="7" x="247.4503" y="905.2684">1</text><!--MD5=[701c5ff21221fa5364a06516fc299725]
link container to dimension--><path codeLine="13" d="M94.39,1075.2 C84.99,1105.66 74.34,1140.2 66.12,1166.83 " fill="none" id="container-dimension" style="stroke:#A80036;stroke-width:1.0;"/><polygon fill="#000000" points="85.0259,1132.9536,90.5008,1125.1769,84.8842,1123.444,85.0259,1132.9536" style="stroke:#000000;stroke-width:1.0;"/><text fill="#000000" font-family="sans-serif" font-size="13" lengthAdjust="spacing" textLength="32" x="95.5" y="1133.4951">has a</text><text fill="#000000" font-family="sans-serif" font-size="13" lengthAdjust="spacing" textLength="7" x="84.949" y="1096.4107">1</text><text fill="#000000" font-family="sans-serif" font-size="13" lengthAdjust="spacing" textLength="7" x="60.6696" y="1156.2481">1</text><!--MD5=[b33549d0dff1e013613152c4fc8d0369]
link container to coordinates--><path codeLine="14" d="M138.96,1075.2 C148.5,1105.66 159.32,1140.2 167.66,1166.83 " fill="none" id="container-coordinates" style="stroke:#A80036;stroke-width:1.0;"/><polygon fill="#000000" points="163.9945,1132.9472,164.0955,1123.4372,158.4864,1125.1941,163.9945,1132.9472" style="stroke:#000000;stroke-width:1.0;"/><text fill="#000000" font-family="sans-serif" font-size="13" lengthAdjust="spacing" textLength="21" x="171.5" y="1133.4951">has</text><text fill="#000000" font-family="sans-serif" font-size="13" lengthAdjust="spacing" textLength="7" x="133.7671" y="1096.4107">1</text><text fill="#000000" font-family="sans-serif" font-size="13" lengthAdjust="spacing" textLength="7" x="158.0048" y="1156.2481">1</text><!--MD5=[963a1435f1f24632df149615ccc6e99f]
link truck to container--><path codeLine="15" d="M96.27,482.19 C96.02,508.37 95.64,552.25 95.5,590 C95.47,598 95.29,600 95.5,608 C98.5,720.5 106.32,850.9 111.52,929.74 " fill="none" id="truck-container" style="stroke:#A80036;stroke-width:1.0;"/><polygon fill="#000000" points="100.6703,604.1729,103.2995,595.033,97.425,595.2331,100.6703,604.1729" style="stroke:#000000;stroke-width:1.0;"/><text fill="#000000" font-family="sans-serif" font-size="13" lengthAdjust="spacing" textLength="58" x="109.5" y="604.4951">transports</text><text fill="#000000" font-family="sans-serif" font-size="13" lengthAdjust="spacing" textLength="7" x="88.3608" y="503.5743">1</text><text fill="#000000" font-family="sans-serif" font-size="13" lengthAdjust="spacing" textLength="7" x="103.6455" y="918.9325">1</text><!--MD5=[52cd19d7047507f5621dbfd3d9fcfde9]
link warehouse to cargoManifest--><path codeLine="16" d="M398.39,236.32 C401.25,260.97 404.65,290.29 407.39,313.97 " fill="none" id="warehouse-cargoManifest" style="stroke:#A80036;stroke-width:1.0;"/><polygon fill="#000000" points="410.0757,280.1425,411.9537,270.8192,406.1149,271.496,410.0757,280.1425" style="stroke:#000000;stroke-width:1.0;"/><text fill="#000000" font-family="sans-serif" font-size="13" lengthAdjust="spacing" textLength="47" x="418.5" y="280.4951">receives</text><text fill="#000000" font-family="sans-serif" font-size="13" lengthAdjust="spacing" textLength="7" x="391.7112" y="257.854">1</text><text fill="#000000" font-family="sans-serif" font-size="13" lengthAdjust="spacing" textLength="20" x="384.9818" y="303.0807">1..*</text><!--MD5=[330b0c6b5c0c0e4969822a0e15c99948]
link port to cargoManifest--><path codeLine="17" d="M571.37,219.42 C565.45,225.01 559.33,230.7 553.5,236 C524.5,262.33 491.42,291.03 464.59,313.97 " fill="none" id="port-cargoManifest" style="stroke:#A80036;stroke-width:1.0;"/><polygon fill="#000000" points="520.7566,278.4904,529.4768,274.6945,525.5802,270.2939,520.7566,278.4904" style="stroke:#000000;stroke-width:1.0;"/><text fill="#000000" font-family="sans-serif" font-size="13" lengthAdjust="spacing" textLength="47" x="533.5" y="280.4951">receives</text><text fill="#000000" font-family="sans-serif" font-size="13" lengthAdjust="spacing" textLength="7" x="556.4026" y="222.4682">1</text><text fill="#000000" font-family="sans-serif" font-size="13" lengthAdjust="spacing" textLength="20" x="451.2981" y="303.0807">1..*</text><!--MD5=[c87d959dfa451faecf28efb58c25fff2]
link shipCrew to ship--><path codeLine="18" d="M285.38,560.33 C279.47,579.71 270.64,608.67 261.83,637.57 " fill="none" id="shipCrew-ship" style="stroke:#A80036;stroke-width:1.0;"/><polygon fill="#000000" points="280.0418,603.9584,285.4909,596.1637,279.8685,594.4494,280.0418,603.9584" style="stroke:#000000;stroke-width:1.0;"/><text fill="#000000" font-family="sans-serif" font-size="13" lengthAdjust="spacing" textLength="34" x="290.5" y="604.4951">works</text><text fill="#000000" font-family="sans-serif" font-size="13" lengthAdjust="spacing" textLength="7" x="275.9241" y="581.3421">1</text><text fill="#000000" font-family="sans-serif" font-size="13" lengthAdjust="spacing" textLength="7" x="256.8003" y="627.108">1</text><!--MD5=[d77048f2da362d787df1add39a149f55]
link cargoManifest to shipCrew--><path codeLine="19" d="M382.22,404.16 C358.75,438.38 327.17,484.44 308.41,511.8 " fill="none" id="cargoManifest-shipCrew" style="stroke:#A80036;stroke-width:1.0;"/><polygon fill="#000000" points="362.6724,462.2994,370.2114,456.5017,365.3638,453.1776,362.6724,462.2994" style="stroke:#000000;stroke-width:1.0;"/><text fill="#000000" font-family="sans-serif" font-size="13" lengthAdjust="spacing" textLength="50" x="374.5" y="463.4951">delivered</text><text fill="#000000" font-family="sans-serif" font-size="13" lengthAdjust="spacing" textLength="7" x="370.6808" y="424.8552">1</text><text fill="#000000" font-family="sans-serif" font-size="13" lengthAdjust="spacing" textLength="7" x="304.5901" y="501.0889">1</text><!--MD5=[c6e76263a0e417b5609c7d6d7791d555]
@startuml
'https://plantuml.com/sequence-diagram

top to bottom direction

company"1" - - - "1..*"truck : > owns
company"1" - - - "1..*"ship : > owns
company"1" - - - "1..*"shipCrew : > owns
company"1" - - "1"warehouse : > has
company"1" - - "1"client : > has
company"1" - - "1"port : > has
ship"1" - - "1..*" container:> transports
ship"1" - - "1"Position:> has a
container"1" - - "1"dimension :> has a
container"1" - - "1"coordinates:> has
truck"1" - - "1"container:> transports
warehouse"1" - -"1..*"cargoManifest :> receives
port"1" - - "1..*"cargoManifest :> receives
shipCrew"1" - - "1"ship :> works
cargoManifest"1" - - "1"shipCrew :> delivered

class company{
}

class dimension{
-width
-height
-length
}

class shipCrew{
}

class container{
-idContainer
-payload
-tare
-gross
-isoCode
-temperature
-refrigeration
}

class truck{
}

class ship{
-mmsi
-name
-imo
-nrGenerators
-generatorPo
-callSign
-vesselType
-length
-width
-capacity
-draft
}

class coordinates{
-xValue
-yValue
-zValue
}

class Position{
-mmsi
-baseDateTime
-latitude
-longitude
-heading
-sog
-cog
-cargo
-transceiverClass
}

class port{
-idPort
-name
-continent
-country
}

class warehouse{
-idWarehouse
-name
-continent
-country
}

class cargoManifest{
-id
-containerPosition
-containerGrossWeight
}


@enduml

@startuml

top to bottom direction

company"1" - - - "1..*"truck : > owns
company"1" - - - "1..*"ship : > owns
company"1" - - - "1..*"shipCrew : > owns
company"1" - - "1"warehouse : > has
company"1" - - "1"client : > has
company"1" - - "1"port : > has
ship"1" - - "1..*" container:> transports
ship"1" - - "1"Position:> has a
container"1" - - "1"dimension :> has a
container"1" - - "1"coordinates:> has
truck"1" - - "1"container:> transports
warehouse"1" - -"1..*"cargoManifest :> receives
port"1" - - "1..*"cargoManifest :> receives
shipCrew"1" - - "1"ship :> works
cargoManifest"1" - - "1"shipCrew :> delivered

class company{
}

class dimension{
-width
-height
-length
}

class shipCrew{
}

class container{
-idContainer
-payload
-tare
-gross
-isoCode
-temperature
-refrigeration
}

class truck{
}

class ship{
-mmsi
-name
-imo
-nrGenerators
-generatorPo
-callSign
-vesselType
-length
-width
-capacity
-draft
}

class coordinates{
-xValue
-yValue
-zValue
}

class Position{
-mmsi
-baseDateTime
-latitude
-longitude
-heading
-sog
-cog
-cargo
-transceiverClass
}

class port{
-idPort
-name
-continent
-country
}

class warehouse{
-idWarehouse
-name
-continent
-country
}

class cargoManifest{
-id
-containerPosition
-containerGrossWeight
}


@enduml

PlantUML version 1.2021.11(Sat Oct 02 14:26:11 BST 2021)
(GPL source distribution)
Java Runtime: OpenJDK Runtime Environment
JVM: OpenJDK 64-Bit Server VM
Default Encoding: Cp1252
Language: pt
Country: PT
--></g></svg>